<?xml version="1.0" encoding="UTF-8"?>
<svg width="35px" height="38px" viewBox="0 0 35 38" version="1.1" xmlns="http://www.w3.org/2000/svg" xmlns:xlink="http://www.w3.org/1999/xlink">
    <!-- Generator: Sketch 52.5 (67469) - http://www.bohemiancoding.com/sketch -->
    <title>design</title>
    <desc>Created with Sketch.</desc>
    <g id="Page-1" stroke="none" stroke-width="1" fill="none" fill-rule="evenodd">
        <path d="M0,0 L0,14.9665845 L10,14.9665845 C10,18.5791557 10,21.6235007 10,24.0996195 C10,25.954177 9.54965584,27.0933165 8.77160138,27.9277892 C8.76927412,27.9556727 13.0393395,31.1333861 13.0334044,31.1289233 C14.1960238,29.699593 15,28.0403794 15,26.4203335 C15,23.9590844 15,20.141168 15,14.9665845 L15,9.97772299 L5,9.97772299 L5,4.98886149 L30,4.98886149 L30,9.97772299 L20,9.97772299 L20,14.9665845 C20,19.549383 20,24.0249862 20,28.3933941 C20,30.6117452 19.2191863,32.5710885 17.5,34.5164799 C17.5112995,34.5256414 21.9162335,37.8842015 21.9092847,37.8872135 C23.8711545,35.5794741 25,32.8177411 25,29.1417234 C25,23.8065162 25,19.0814699 25,14.9665845 L35,14.9665845 L35,0" id="Path-7-Copy-2" fill="#5B7C78" transform="translate(17.500000, 18.943607) scale(-1, 1) translate(-17.500000, -18.943607) "></path>
    </g>
</svg>